<svg width="1240" height="668" aria-label="A chart." style="overflow: hidden;"><defs id="defs"><clipPath id="_ABSTRACT_RENDERER_ID_9"><rect x="217" y="128" width="807" height="413"></rect></clipPath></defs><rect x="0" y="0" width="1240" height="668" stroke="none" stroke-width="0" fill="#ffffff"></rect><g><rect x="1040" y="128" width="184" height="413" stroke="none" stroke-width="0" fill-opacity="0" fill="#ffffff"></rect><g column-id="10"><rect x="1040" y="128" width="184" height="16" stroke="none" stroke-width="0" fill-opacity="0" fill="#ffffff"></rect><g><text text-anchor="start" x="1078" y="141.6" font-family="Arial" font-size="16" stroke="none" stroke-width="0" fill="#222222">Surfaces s…</text><rect x="1078" y="128" width="146" height="16" stroke="none" stroke-width="0" fill-opacity="0" fill="#ffffff"></rect></g><path d="M1040,136L1072,136" stroke="#3366cc" stroke-width="2" fill-opacity="1" fill="none"></path></g><g column-id="11"><rect x="1040" y="154" width="184" height="16" stroke="none" stroke-width="0" fill-opacity="0" fill="#ffffff"></rect><g><text text-anchor="start" x="1078" y="167.6" font-family="Arial" font-size="16" stroke="none" stroke-width="0" fill="#222222">Terrains ro…</text><rect x="1078" y="154" width="146" height="16" stroke="none" stroke-width="0" fill-opacity="0" fill="#ffffff"></rect></g><path d="M1040,162L1072,162" stroke="#dc3912" stroke-width="2" fill-opacity="1" fill="none"></path></g><g column-id="12"><rect x="1040" y="180" width="184" height="16" stroke="none" stroke-width="0" fill-opacity="0" fill="#ffffff"></rect><g><text text-anchor="start" x="1078" y="193.6" font-family="Arial" font-size="16" stroke="none" stroke-width="0" fill="#222222">Sols dénudés</text></g><path d="M1040,188L1072,188" stroke="#ff9900" stroke-width="2" fill-opacity="1" fill="none"></path></g><g column-id="13"><rect x="1040" y="206" width="184" height="16" stroke="none" stroke-width="0" fill-opacity="0" fill="#ffffff"></rect><g><text text-anchor="start" x="1078" y="219.6" font-family="Arial" font-size="16" stroke="none" stroke-width="0" fill="#222222">Habitations</text></g><path d="M1040,214L1072,214" stroke="#109618" stroke-width="2" fill-opacity="1" fill="none"></path></g><g column-id="14"><rect x="1040" y="232" width="184" height="16" stroke="none" stroke-width="0" fill-opacity="0" fill="#ffffff"></rect><g><text text-anchor="start" x="1078" y="245.6" font-family="Arial" font-size="16" stroke="none" stroke-width="0" fill="#222222">Cultures irr…</text><rect x="1078" y="232" width="146" height="16" stroke="none" stroke-width="0" fill-opacity="0" fill="#ffffff"></rect></g><path d="M1040,240L1072,240" stroke="#990099" stroke-width="2" fill-opacity="1" fill="none"></path></g><g column-id="15"><rect x="1040" y="258" width="184" height="16" stroke="none" stroke-width="0" fill-opacity="0" fill="#ffffff"></rect><g><text text-anchor="start" x="1078" y="271.6" font-family="Arial" font-size="16" stroke="none" stroke-width="0" fill="#222222">Forêt galeri…</text><rect x="1078" y="258" width="146" height="16" stroke="none" stroke-width="0" fill-opacity="0" fill="#ffffff"></rect></g><path d="M1040,266L1072,266" stroke="#0099c6" stroke-width="2" fill-opacity="1" fill="none"></path></g><g column-id="2"><rect x="1040" y="284" width="184" height="16" stroke="none" stroke-width="0" fill-opacity="0" fill="#ffffff"></rect><g><text text-anchor="start" x="1078" y="297.6" font-family="Arial" font-size="16" stroke="none" stroke-width="0" fill="#222222">Savane</text></g><path d="M1040,292L1072,292" stroke="#dd4477" stroke-width="2" fill-opacity="1" fill="none"></path></g><g column-id="24"><rect x="1040" y="310" width="184" height="16" stroke="none" stroke-width="0" fill-opacity="0" fill="#ffffff"></rect><g><text text-anchor="start" x="1078" y="323.6" font-family="Arial" font-size="16" stroke="none" stroke-width="0" fill="#222222">Cultures d…</text><rect x="1078" y="310" width="146" height="16" stroke="none" stroke-width="0" fill-opacity="0" fill="#ffffff"></rect></g><path d="M1040,318L1072,318" stroke="#66aa00" stroke-width="2" fill-opacity="1" fill="none"></path></g><g column-id="25"><rect x="1040" y="336" width="184" height="16" stroke="none" stroke-width="0" fill-opacity="0" fill="#ffffff"></rect><g><text text-anchor="start" x="1078" y="349.6" font-family="Arial" font-size="16" stroke="none" stroke-width="0" fill="#222222">Forêt claire</text></g><path d="M1040,344L1072,344" stroke="#b82e2e" stroke-width="2" fill-opacity="1" fill="none"></path></g><g column-id="28"><rect x="1040" y="362" width="184" height="16" stroke="none" stroke-width="0" fill-opacity="0" fill="#ffffff"></rect><g><text text-anchor="start" x="1078" y="375.6" font-family="Arial" font-size="16" stroke="none" stroke-width="0" fill="#222222">Forêt maré…</text><rect x="1078" y="362" width="146" height="16" stroke="none" stroke-width="0" fill-opacity="0" fill="#ffffff"></rect></g><path d="M1040,370L1072,370" stroke="#316395" stroke-width="2" fill-opacity="1" fill="none"></path></g><g column-id="29"><rect x="1040" y="388" width="184" height="16" stroke="none" stroke-width="0" fill-opacity="0" fill="#ffffff"></rect><g><text text-anchor="start" x="1078" y="401.6" font-family="Arial" font-size="16" stroke="none" stroke-width="0" fill="#222222">Savane sa…</text><rect x="1078" y="388" width="146" height="16" stroke="none" stroke-width="0" fill-opacity="0" fill="#ffffff"></rect></g><path d="M1040,396L1072,396" stroke="#994499" stroke-width="2" fill-opacity="1" fill="none"></path></g><g column-id="3"><rect x="1040" y="414" width="184" height="16" stroke="none" stroke-width="0" fill-opacity="0" fill="#ffffff"></rect><g><text text-anchor="start" x="1078" y="427.6" font-family="Arial" font-size="16" stroke="none" stroke-width="0" fill="#222222">Prairie mar…</text><rect x="1078" y="414" width="146" height="16" stroke="none" stroke-width="0" fill-opacity="0" fill="#ffffff"></rect></g><path d="M1040,422L1072,422" stroke="#22aa99" stroke-width="2" fill-opacity="1" fill="none"></path></g><g column-id="31"><rect x="1040" y="440" width="184" height="16" stroke="none" stroke-width="0" fill-opacity="0" fill="#ffffff"></rect><g><text text-anchor="start" x="1078" y="453.6" font-family="Arial" font-size="16" stroke="none" stroke-width="0" fill="#222222">Savane he…</text><rect x="1078" y="440" width="146" height="16" stroke="none" stroke-width="0" fill-opacity="0" fill="#ffffff"></rect></g><path d="M1040,448L1072,448" stroke="#aaaa11" stroke-width="2" fill-opacity="1" fill="none"></path></g><g column-id="4"><rect x="1040" y="466" width="184" height="16" stroke="none" stroke-width="0" fill-opacity="0" fill="#ffffff"></rect><g><text text-anchor="start" x="1078" y="479.6" font-family="Arial" font-size="16" stroke="none" stroke-width="0" fill="#222222">Steppe</text></g><path d="M1040,474L1072,474" stroke="#6633cc" stroke-width="2" fill-opacity="1" fill="none"></path></g><g column-id="6"><rect x="1040" y="492" width="184" height="16" stroke="none" stroke-width="0" fill-opacity="0" fill="#ffffff"></rect><g><text text-anchor="start" x="1078" y="505.6" font-family="Arial" font-size="16" stroke="none" stroke-width="0" fill="#222222">6</text></g><path d="M1040,500L1072,500" stroke="#e67300" stroke-width="2" fill-opacity="1" fill="none"></path></g><path d="M1056,541L1048,525L1040,541Z" stroke="none" stroke-width="0" fill="#cccccc"></path><g><text text-anchor="middle" x="1078.5" y="538.6" font-family="Arial" font-size="16" stroke="none" stroke-width="0" fill="#0011cc">1/2</text></g><path d="M1101,525L1117,525L1109,541Z" stroke="none" stroke-width="0" fill="#0011cc"></path></g><g><rect x="217" y="128" width="807" height="413" stroke="none" stroke-width="0" fill-opacity="0" fill="#ffffff"></rect><g clip-path="url(https://code.earthengine.google.com/#_ABSTRACT_RENDERER_ID_9)"><g><rect x="217" y="540" width="807" height="1" stroke="none" stroke-width="0" fill="#cccccc"></rect><rect x="217" y="437" width="807" height="1" stroke="none" stroke-width="0" fill="#cccccc"></rect><rect x="217" y="334" width="807" height="1" stroke="none" stroke-width="0" fill="#cccccc"></rect><rect x="217" y="231" width="807" height="1" stroke="none" stroke-width="0" fill="#cccccc"></rect><rect x="217" y="128" width="807" height="1" stroke="none" stroke-width="0" fill="#cccccc"></rect></g><g><rect x="217" y="540" width="807" height="1" stroke="none" stroke-width="0" fill="#333333"></rect></g><g><path d="M241.2058823529412,535.350331428553L288.61764705882354,535.6538081916941L336.02941176470586,536.169005596647L383.44117647058823,535.2839041026589L430.8529411764706,534.7987702056236L478.2647058823529,535.0578645280824L525.6764705882354,535.0615174751882L573.0882352941177,535.2488652948588L620.5,535.7453175492589L667.9117647058824,536.0461247123529L715.3235294117648,536.4006776850235L762.7352941176471,536.3636551626588L810.1470588235294,535.9616812214352L857.5588235294118,534.2987746882118L904.9705882352941,534.626649400647L952.3823529411765,534.7580692382L999.7941176470589,534.4837750312471" stroke="#3366cc" stroke-width="2" fill-opacity="1" fill="none"></path><path d="M241.2058823529412,527.4645656719647L288.61764705882354,527.4075418704235L336.02941176470586,525.8110855836235L383.44117647058823,523.8561211459647L430.8529411764706,525.8960715549412L478.2647058823529,526.0464884289412L525.6764705882354,526.9975592490235L573.0882352941177,526.3555355896118L620.5,525.805770765447L667.9117647058824,526.3876379704118L715.3235294117648,526.1067825665176L762.7352941176471,527.3577709205176L810.1470588235294,525.2641475423529L857.5588235294118,527.2446398223411L904.9705882352941,527.6903250598823L952.3823529411765,527.8191443207177L999.7941176470589,526.6036683042942" stroke="#dc3912" stroke-width="2" fill-opacity="1" fill="none"></path><path d="M241.2058823529412,530.4839503890942L288.61764705882354,531.2713729224588L336.02941176470586,531.6727432921647L383.44117647058823,531.5749751686824L430.8529411764706,530.8563423389177L478.2647058823529,531.3140854435294L525.6764705882354,531.1505033664235L573.0882352941177,531.3849339596L620.5,530.8506585383882L667.9117647058824,530.7640726159647L715.3235294117648,530.7966687678588L762.7352941176471,531.1337110558824L810.1470588235294,531.1501119143177L857.5588235294118,530.9936047884588L904.9705882352941,531.2916756002353L952.3823529411765,530.9312193934118L999.7941176470589,530.4355734072589" stroke="#ff9900" stroke-width="2" fill-opacity="1" fill="none"></path><path d="M241.2058823529412,540.2791910501883L288.61764705882354,540.4078561527411L336.02941176470586,540.4087459818588L383.44117647058823,540.3821577387765L430.8529411764706,540.3932291651529L478.2647058823529,540.3750542432L525.6764705882354,540.3791641867647L573.0882352941177,540.3956451416353L620.5,540.3861457909294L667.9117647058824,540.3873798642235L715.3235294117648,540.3565045478706L762.7352941176471,540.3131671197411L810.1470588235294,540.3152185671058L857.5588235294118,540.3161849627883L904.9705882352941,540.345511829247L952.3823529411765,540.328467451047L999.7941176470589,540.3451626919647" stroke="#109618" stroke-width="2" fill-opacity="1" fill="none"></path><path d="M241.2058823529412,539.6534435622589L288.61764705882354,539.8332688169177L336.02941176470586,539.7487999262L383.44117647058823,539.8927628117176L430.8529411764706,539.8926451408823L478.2647058823529,539.9143952546353L525.6764705882354,539.7810268376353L573.0882352941177,539.8617920579883L620.5,539.8433516577765L667.9117647058824,539.8462828535883L715.3235294117648,539.8645167036589L762.7352941176471,539.9233055095647L810.1470588235294,539.8774734117412L857.5588235294118,539.7556851659882L904.9705882352941,539.7767893788588L952.3823529411765,539.7392924796941L999.7941176470589,539.8657963017412" stroke="#990099" stroke-width="2" fill-opacity="1" fill="none"></path><path d="M241.2058823529412,540.4890916492824L288.61764705882354,540.4841273970588L336.02941176470586,540.4719449411882L383.44117647058823,540.4673704361177L430.8529411764706,540.4886162982235L478.2647058823529,540.4810022946589L525.6764705882354,540.4835598440353L573.0882352941177,540.4719126416L620.5,540.4881901399647L667.9117647058824,540.4858898458118L715.3235294117648,540.4859224253177L762.7352941176471,540.4870629770353L810.1470588235294,540.4781462403764L857.5588235294118,540.4682417216L904.9705882352941,540.4602131818118L952.3823529411765,540.4895625143882L999.7941176470589,540.4897619139059" stroke="#0099c6" stroke-width="2" fill-opacity="1" fill="none"></path><path d="M241.2058823529412,535.2404243454941L288.61764705882354,536.1939210227882L336.02941176470586,537.4224878896471L383.44117647058823,537.2785570637882L430.8529411764706,537.2427470392471L478.2647058823529,535.5818167973176L525.6764705882354,536.0262873740353L573.0882352941177,536.3329885630824L620.5,536.3206387528118L667.9117647058824,537.1055952480589L715.3235294117648,536.8315756584941L762.7352941176471,536.7398592273058L810.1470588235294,534.276733300153L857.5588235294118,535.6526226859294L904.9705882352941,537.6375557176118L952.3823529411765,537.4078063217529L999.7941176470589,537.5341573851059" stroke="#dd4477" stroke-width="2" fill-opacity="1" fill="none"></path><path d="M241.2058823529412,540.4418093344824L288.61764705882354,540.4529547899882L336.02941176470586,540.4442217120235L383.44117647058823,540.4518459016823L430.8529411764706,540.4316367563882L478.2647058823529,540.4292912282706L525.6764705882354,540.3803263684823L573.0882352941177,540.4350883845411L620.5,540.473547956847L667.9117647058824,540.4509230786352L715.3235294117648,540.439462177753L762.7352941176471,540.4317910891647L810.1470588235294,540.4410108203176L857.5588235294118,540.4302031527059L904.9705882352941,540.4416328336823L952.3823529411765,540.4304569107765L999.7941176470589,540.4306052053294" stroke="#66aa00" stroke-width="2" fill-opacity="1" fill="none"></path><path d="M241.2058823529412,540.497841944L288.61764705882354,540.497871608L336.02941176470586,540.499455851L383.44117647058823,540.499005329L430.8529411764706,540.498774506L478.2647058823529,540.4946576262942L525.6764705882354,540.4882486100353L573.0882352941177,540.498228503L620.5,540.499840556L667.9117647058824,540.4997153819177L715.3235294117648,540.4996811556235L762.7352941176471,540.498842177L810.1470588235294,540.497714945L857.5588235294118,540.49363151L904.9705882352941,540.499365005L952.3823529411765,540.499504055L999.7941176470589,540.49976825" stroke="#b82e2e" stroke-width="2" fill-opacity="1" fill="none"></path><path d="M241.2058823529412,540.493464490047L288.61764705882354,540.492340173553L336.02941176470586,540.4917634923058L383.44117647058823,540.4861194073648L430.8529411764706,540.4934177547059L478.2647058823529,540.4938923787059L525.6764705882354,540.4975081222118L573.0882352941177,540.4885681269412L620.5,540.4943235318589L667.9117647058824,540.4936545759412L715.3235294117648,540.4931510804353L762.7352941176471,540.4922871964118L810.1470588235294,540.4924189212941L857.5588235294118,540.4927754673059L904.9705882352941,540.4904864571059L952.3823529411765,540.4935597820117L999.7941176470589,540.4951512628824" stroke="#316395" stroke-width="2" fill-opacity="1" fill="none"></path><path d="M241.2058823529412,395.4863219426352L288.61764705882354,409.4224980868471L336.02941176470586,414.76012780297646L383.44117647058823,425.0823354063765L430.8529411764706,417.5607073189647L478.2647058823529,421.1948682754471L525.6764705882354,414.55707462207056L573.0882352941177,415.46933355895294L620.5,417.1361825468353L667.9117647058824,417.777255918553L715.3235294117648,424.44772084354116L762.7352941176471,438.8054757284353L810.1470588235294,429.334704061753L857.5588235294118,417.6268130013059L904.9705882352941,408.81297323342346L952.3823529411765,415.86288974762357L999.7941176470589,417.7275972846942" stroke="#994499" stroke-width="2" fill-opacity="1" fill="none"></path><path d="M241.2058823529412,535.8707393078353L288.61764705882354,537.1197232660824L336.02941176470586,536.5079709698L383.44117647058823,536.532026768847L430.8529411764706,536.239271527753L478.2647058823529,536.3048353513294L525.6764705882354,536.2423567582471L573.0882352941177,535.9262773901177L620.5,535.7181960994118L667.9117647058824,535.5992169508471L715.3235294117648,533.0040226133176L762.7352941176471,533.8289987382589L810.1470588235294,532.2879528404L857.5588235294118,535.2150015013647L904.9705882352941,536.9173311597765L952.3823529411765,536.8792038315412L999.7941176470589,536.5691298893177" stroke="#22aa99" stroke-width="2" fill-opacity="1" fill="none"></path><path d="M241.2058823529412,540.4478119866588L288.61764705882354,540.4628645944823L336.02941176470586,540.4613890322353L383.44117647058823,540.4659720693412L430.8529411764706,540.4693575351412L478.2647058823529,540.4624104153764L525.6764705882354,540.4642201629412L573.0882352941177,540.4255437417058L620.5,540.4107915800353L667.9117647058824,540.4305017666705L715.3235294117648,540.3781912221059L762.7352941176471,540.2426732229765L810.1470588235294,540.3498738986353L857.5588235294118,540.3859191339765L904.9705882352941,540.4402278979294L952.3823529411765,540.4317008975177L999.7941176470589,540.4420435492118" stroke="#aaaa11" stroke-width="2" fill-opacity="1" fill="none"></path><path d="M241.2058823529412,239.77041926264695L288.61764705882354,228.38829841015297L336.02941176470586,247.7021515538707L383.44117647058823,223.09725843803523L430.8529411764706,234.14596492424693L478.2647058823529,260.9420523342942L525.6764705882354,264.31270553222356L573.0882352941177,259.68047866544697L620.5,246.29629447562348L667.9117647058824,243.47531876028256L715.3235294117648,242.6348802935177L762.7352941176471,260.44135527418797L810.1470588235294,302.1022470839529L857.5588235294118,255.4507818235649L904.9705882352941,255.56733450055282L952.3823529411765,249.31785982756435L999.7941176470589,244.10535118392937" stroke="#6633cc" stroke-width="2" fill-opacity="1" fill="none"></path><g><circle cx="336.02941176470586" cy="540.499998146" r="2" stroke="none" stroke-width="0" fill="#e67300"></circle></g><g><circle cx="241.2058823529412" cy="540.499999073" r="2" stroke="none" stroke-width="0" fill="#8b0707"></circle><circle cx="904.9705882352941" cy="540.499999073" r="2" stroke="none" stroke-width="0" fill="#8b0707"></circle></g><path d="M241.2058823529412,436.42791852842356L288.61764705882354,430.2852034317765L336.02941176470586,414.9983071259883L383.44117647058823,422.41529895782355L430.8529411764706,417.88469813042354L478.2647058823529,416.88085175712945L525.6764705882354,419.014854251953L573.0882352941177,422.83721414497654L620.5,419.46804719705887L667.9117647058824,407.42881645449415L715.3235294117648,404.5796449035765L762.7352941176471,396.39829606512944L810.1470588235294,405.1915818037295L857.5588235294118,399.0736879536587L904.9705882352941,403.0420084935412L952.3823529411765,402.43111625331767L999.7941176470589,407.3150893062235" stroke="#651067" stroke-width="2" fill-opacity="1" fill="none"></path><path d="M241.2058823529412,538.4137312508L288.61764705882354,538.4374044824L336.02941176470586,538.8034694318353L383.44117647058823,539.0453444711883L430.8529411764706,539.5188050207529L478.2647058823529,539.5562788721529L525.6764705882354,539.6929324680941L573.0882352941177,539.7174394653059L620.5,539.6330787791177L667.9117647058824,539.6326692196118L715.3235294117648,539.491652572753L762.7352941176471,539.7088253268942L810.1470588235294,539.4054089678L857.5588235294118,538.9124878381647L904.9705882352941,538.7709763950588L952.3823529411765,538.9912021928L999.7941176470589,539.4684242502589" stroke="#329262" stroke-width="2" fill-opacity="1" fill="none"></path></g></g><g></g><g><g><text text-anchor="middle" x="241.2058823529412" y="564.6" font-family="Arial" font-size="16" stroke="none" stroke-width="0" fill="#222222">2000</text></g><g><text text-anchor="middle" x="288.61764705882354" y="585.6" font-family="Arial" font-size="16" stroke="none" stroke-width="0" fill="#222222">2001</text></g><g><text text-anchor="middle" x="336.02941176470586" y="564.6" font-family="Arial" font-size="16" stroke="none" stroke-width="0" fill="#222222">2002</text></g><g><text text-anchor="middle" x="383.44117647058823" y="585.6" font-family="Arial" font-size="16" stroke="none" stroke-width="0" fill="#222222">2003</text></g><g><text text-anchor="middle" x="430.8529411764706" y="564.6" font-family="Arial" font-size="16" stroke="none" stroke-width="0" fill="#222222">2004</text></g><g><text text-anchor="middle" x="478.2647058823529" y="585.6" font-family="Arial" font-size="16" stroke="none" stroke-width="0" fill="#222222">2005</text></g><g><text text-anchor="middle" x="525.6764705882354" y="564.6" font-family="Arial" font-size="16" stroke="none" stroke-width="0" fill="#222222">2006</text></g><g><text text-anchor="middle" x="573.0882352941177" y="585.6" font-family="Arial" font-size="16" stroke="none" stroke-width="0" fill="#222222">2007</text></g><g><text text-anchor="middle" x="620.5" y="564.6" font-family="Arial" font-size="16" stroke="none" stroke-width="0" fill="#222222">2008</text></g><g><text text-anchor="middle" x="667.9117647058824" y="585.6" font-family="Arial" font-size="16" stroke="none" stroke-width="0" fill="#222222">2009</text></g><g><text text-anchor="middle" x="715.3235294117648" y="564.6" font-family="Arial" font-size="16" stroke="none" stroke-width="0" fill="#222222">2010</text></g><g><text text-anchor="middle" x="762.7352941176471" y="585.6" font-family="Arial" font-size="16" stroke="none" stroke-width="0" fill="#222222">2011</text></g><g><text text-anchor="middle" x="810.1470588235294" y="564.6" font-family="Arial" font-size="16" stroke="none" stroke-width="0" fill="#222222">2012</text></g><g><text text-anchor="middle" x="857.5588235294118" y="585.6" font-family="Arial" font-size="16" stroke="none" stroke-width="0" fill="#222222">2013</text></g><g><text text-anchor="middle" x="904.9705882352941" y="564.6" font-family="Arial" font-size="16" stroke="none" stroke-width="0" fill="#222222">2014</text></g><g><text text-anchor="middle" x="952.3823529411765" y="585.6" font-family="Arial" font-size="16" stroke="none" stroke-width="0" fill="#222222">2015</text></g><g><text text-anchor="middle" x="999.7941176470589" y="564.6" font-family="Arial" font-size="16" stroke="none" stroke-width="0" fill="#222222">2016</text></g><g><text text-anchor="end" x="201" y="546.1" font-family="Arial" font-size="16" stroke="none" stroke-width="0" fill="#444444">0</text></g><g><text text-anchor="end" x="201" y="443.1" font-family="Arial" font-size="16" stroke="none" stroke-width="0" fill="#444444">100,000</text></g><g><text text-anchor="end" x="201" y="340.1" font-family="Arial" font-size="16" stroke="none" stroke-width="0" fill="#444444">200,000</text></g><g><text text-anchor="end" x="201" y="237.09999999999994" font-family="Arial" font-size="16" stroke="none" stroke-width="0" fill="#444444">300,000</text></g><g><text text-anchor="end" x="201" y="134.09999999999994" font-family="Arial" font-size="16" stroke="none" stroke-width="0" fill="#444444">400,000</text></g></g></g><g><g><text text-anchor="middle" x="620.5" y="633.6" font-family="Arial" font-size="16" font-style="italic" stroke="none" stroke-width="0" fill="#222222">year</text><rect x="217" y="620" width="807" height="16" stroke="none" stroke-width="0" fill-opacity="0" fill="#ffffff"></rect></g><g><text text-anchor="middle" x="62.6" y="334.5" font-family="Arial" font-size="16" font-style="italic" transform="rotate(-90 62.6 334.5)" stroke="none" stroke-width="0" fill="#222222">km^2</text><path d="M48.99999999999998,541L49.00000000000001,128L65,128L64.99999999999999,541Z" stroke="none" stroke-width="0" fill-opacity="0" fill="#ffffff"></path></g></g><g></g></svg>